:FULLY-SPECIFIED
:FORCE-ALL-JOINTS-BE-3DOF
:DEGREES
2141
root -2.59021 15.1975 -0.295392 904.228 7.85526 186.097
lfemur -50.6733 13.5557 -28.6983
ltibia 48.1749 0 0
lfoot 5.60576 20.3761 0
ltoes 10.6787 0 0
rfemur -17.3417 -1.1456 20.547
rtibia 87.1953 0 0
rfoot -8.69922 -0.865743 0
rtoes -22.2569 0 0
lowerback 8.62722 0.484604 -0.15712
upperback -1.72385 0.963378 3.45899
thorax -6.72647 0.600947 3.58493
lowerneck -4.98527 0.267895 -4.47374
upperneck 4.84759 0.538061 2.76217
head 2.3938 0.270931 1.68703
lclavicle 2.10823e-14 -1.67738e-14 0
lhumerus 52.8625 4.20378 108.595
lradius 12.503 0 0
lwrist -49.7542 0 0
lhand -26.9312 356.023 0
lfingers 7.12502 0 0
lthumb -8.44126 -282.846 0
rclavicle -1.89405e-14 4.11071e-15 0
rhumerus -54.0688 20.6374 -98.2205
rradius 108.033 0 0
rwrist -83.4645 0 0
rhand -15.2775 -393.142 0
rfingers 7.12502 0 0
rthumb 11.0482 297.338 0
2142
root -2.57552 15.1969 -0.514601 903.462 6.84501 185.14
lfemur -50.0503 13.5309 -29.1562
ltibia 49.4401 0 0
lfoot 4.79376 20.5849 0
ltoes 9.48356 0 0
rfemur -17.9248 -1.28348 19.8188
rtibia 88.6561 0 0
rfoot -7.33027 -0.323213 0
rtoes -21.0437 0 0
lowerback 9.68038 0.158282 -1.03962
upperback -1.44707 0.403408 3.31028
thorax -7.00309 0.350963 4.01636
lowerneck -5.07839 0.378048 -4.43408
upperneck 4.69031 0.703183 2.45032
head 2.35071 0.345446 1.58229
lclavicle 1.88204e-14 -1.55338e-14 0
lhumerus 52.7275 3.85175 108.248
lradius 12.8481 0 0
lwrist -48.2006 0 0
lhand -28.104 368.942 0
lfingers 7.12502 0 0
lthumb -8.30158 -283.019 0
rclavicle -1.84476e-14 6.44142e-15 0
rhumerus -53.592 20.3563 -97.6379
rradius 108.334 0 0
rwrist -82.8031 0 0
rhand -15.3269 -393.139 0
rfingers 7.12502 0 0
rthumb 11.3104 297.426 0
2143
root -2.5618 15.2055 -0.734941 902.871 6.12727 184.092
lfemur -49.5115 13.5095 -29.5523
ltibia 50.6706 0 0
lfoot 3.8767 20.8207 0
ltoes 8.0975 0 0
rfemur -18.459 -1.4098 19.1516
rtibia 89.9838 0 0
rfoot -6.04265 0.187087 0
rtoes -19.8248 0 0
lowerback 10.4867 -0.0204328 -1.93176
upperback -1.20673 0.0137355 3.05488
thorax -7.17732 0.182604 4.32251
lowerneck -5.29888 0.402811 -4.38228
upperneck 4.77636 0.75439 2.22752
head 2.41728 0.365493 1.50544
lclavicle 1.64036e-14 -1.42089e-14 0
lhumerus 52.5128 3.29179 107.696
lradius 13.4027 0 0
lwrist -46.4539 0 0
lhand -29.1061 379.98 0
lfingers 7.12502 0 0
lthumb -8.1454 -283.213 0
rclavicle -1.79496e-14 8.7962e-15 0
rhumerus -53.0985 20.0653 -97.035
rradius 108.74 0 0
rwrist -82.0595 0 0
rhand -15.2104 -393.117 0
rfingers 7.12502 0 0
rthumb 11.7311 297.569 0
2144
root -2.54845 15.2214 -0.950157 902.199 5.44656 182.846
lfemur -49.0698 13.4919 -29.8769
ltibia 51.8432 0 0
lfoot 2.86771 21.0801 0
ltoes 6.54784 0 0
rfemur -18.9354 -1.52246 18.5567
rtibia 91.1594 0 0
rfoot -4.85114 0.659298 0
rtoes -18.6116 0 0
lowerback 11.4115 -0.173002 -2.99469
upperback -0.942153 -0.386769 2.69827
thorax -7.38235 0.0158423 4.62873
lowerneck -5.57479 0.405493 -4.24975
upperneck 4.90092 0.770187 2.03858
head 2.5086 0.369952 1.42522
lclavicle 1.38837e-14 -1.28274e-14 0
lhumerus 52.2267 2.54578 106.961
lradius 14.1502 0 0
lwrist -44.5418 0 0
lhand -29.9185 388.93 0
lfingers 7.12502 0 0
lthumb -7.97549 -283.423 0
rclavicle -1.74516e-14 1.1151e-14 0
rhumerus -52.5967 19.7695 -96.422
rradius 109.242 0 0
rwrist -81.2455 0 0
rhand -14.8726 -393.054 0
rfingers 7.12502 0 0
rthumb 12.2973 297.761 0
